<svg width="26" height="24" viewBox="0 0 26 24" fill="none" xmlns="http://www.w3.org/2000/svg">
<path d="M7.58333 2C7.58333 1.44772 7.0983 1 6.5 1C5.9017 1 5.41667 1.44772 5.41667 2V2.44885C5.82868 2.32821 6.26767 2.24208 6.73327 2.17961C7.00189 2.14357 7.28511 2.11476 7.58333 2.09173V2Z" fill="#8F8881"/>
<path d="M20.5833 2.44885C20.1713 2.32821 19.7324 2.24208 19.2668 2.17961C18.9981 2.14357 18.7149 2.11476 18.4167 2.09173V2C18.4167 1.44772 18.9017 1 19.5 1C20.0983 1 20.5833 1.44772 20.5833 2V2.44885Z" fill="#8F8881"/>
<path fill-rule="evenodd" clip-rule="evenodd" d="M14.1145 2H11.8855C9.77485 1.99997 8.07236 1.99994 6.73327 2.17961C5.3358 2.3671 4.1782 2.76781 3.26952 3.6746C2.37195 4.57031 1.98552 5.69272 1.80284 7.04866C1.62497 8.36894 1.62498 10.0541 1.625 12.1739V12.8261C1.62498 14.9459 1.62497 16.6311 1.80284 17.9513C1.98552 19.3073 2.37195 20.4297 3.26952 21.3254C4.1782 22.2322 5.3358 22.6329 6.73327 22.8204C8.07237 23.0001 9.77484 23 11.8855 23H14.1145C16.2252 23 17.9277 23.0001 19.2668 22.8204C20.6643 22.6329 21.8218 22.2322 22.7305 21.3254C23.628 20.4297 24.0145 19.3073 24.1971 17.9513C24.375 16.6311 24.375 14.9459 24.375 12.8261V12.1739C24.375 10.0541 24.375 8.36895 24.1971 7.04866C24.0145 5.69272 23.628 4.57031 22.7305 3.6746C21.8218 2.76781 20.6643 2.3671 19.2668 2.17961C17.9277 1.99994 16.2252 1.99997 14.1145 2ZM4.87265 9C4.37581 9 4.12739 9 3.96917 9.14417C3.81096 9.28833 3.80778 9.51472 3.80142 9.96751C3.79196 10.6407 3.79167 11.3942 3.79167 12.2432V12.7568C3.79167 14.9616 3.79364 16.5221 3.95294 17.7045C4.10938 18.8656 4.40118 19.5094 4.86007 19.9673C5.30786 20.4142 5.92009 20.6903 7.04492 20.8412C8.21013 20.9975 9.7546 21 11.9708 21H14.0292C16.2453 21 17.7899 20.9975 18.9551 20.8412C20.0799 20.6903 20.6921 20.4142 21.1399 19.9673C21.5989 19.5094 21.8906 18.8656 22.047 17.7045C22.2064 16.5221 22.2083 14.9616 22.2083 12.7568V12.2432C22.2083 11.3942 22.208 10.6407 22.1986 9.96751C22.1922 9.51472 22.1891 9.28833 22.0309 9.14417C21.8726 9 21.6242 9 21.1274 9H4.87265Z" fill="#8F8881"/>
<path fill-rule="evenodd" clip-rule="evenodd" d="M7.3125 13C7.3125 12.3096 7.91878 11.75 8.66667 11.75H8.67639C9.42428 11.75 10.0306 12.3096 10.0306 13C10.0306 13.6904 9.42428 14.25 8.67639 14.25H8.66667C7.91878 14.25 7.3125 13.6904 7.3125 13ZM11.641 13C11.641 12.3096 12.2473 11.75 12.9951 11.75H13.0049C13.7527 11.75 14.359 12.3096 14.359 13C14.359 13.6904 13.7527 14.25 13.0049 14.25H12.9951C12.2473 14.25 11.641 13.6904 11.641 13ZM15.9694 13C15.9694 12.3096 16.5758 11.75 17.3236 11.75H17.3333C18.0813 11.75 18.6875 12.3096 18.6875 13C18.6875 13.6904 18.0813 14.25 17.3333 14.25H17.3236C16.5758 14.25 15.9694 13.6904 15.9694 13ZM7.3125 17C7.3125 16.3096 7.91878 15.75 8.66667 15.75H8.67639C9.42428 15.75 10.0306 16.3096 10.0306 17C10.0306 17.6904 9.42428 18.25 8.67639 18.25H8.66667C7.91878 18.25 7.3125 17.6904 7.3125 17ZM11.641 17C11.641 16.3096 12.2473 15.75 12.9951 15.75H13.0049C13.7527 15.75 14.359 16.3096 14.359 17C14.359 17.6904 13.7527 18.25 13.0049 18.25H12.9951C12.2473 18.25 11.641 17.6904 11.641 17Z" fill="#8F8881"/>
</svg>
