<svg width="26" height="24" viewBox="0 0 26 24" fill="none" xmlns="http://www.w3.org/2000/svg">
<path opacity="0.4" d="M17.4368 5.72166L26 23.9982C21.6666 23.9982 20.3478 21.7124 15.8261 19.4266C12.2087 17.5982 7.15942 17.9028 5.65218 18.2838L11.7148 13.9976C12.3317 13.5614 12.6402 13.3434 12.7387 13.0114C12.8373 12.6794 12.6979 12.3284 12.4189 11.6262L11.5704 9.48996C11.2531 8.69116 11.0944 8.29178 10.8077 8.00204C10.7078 7.9011 10.5974 7.8111 10.4784 7.73354C10.137 7.51092 9.7138 7.43584 8.86752 7.2857L2.3663 6.13222C0.9974 5.88936 0 4.69942 0 3.30914C0 1.56254 1.54836 0.221738 3.27702 0.471398L12.0686 1.74114C13.6521 1.96984 14.4438 2.08418 15.1042 2.46164C15.3795 2.619 15.6351 2.80854 15.8656 3.02624C16.4186 3.5485 16.758 4.27288 17.4368 5.72166Z" fill="#B8CEDC"/>
</svg>
