<svg width="36" height="39" viewBox="0 0 36 39" fill="none" xmlns="http://www.w3.org/2000/svg">
<path opacity="0.4" d="M10.002 11.0017C14.176 7.22907 24.6542 5.25811 33.002 9.03037L33.4498 9.21813C35.075 12.1104 36.002 15.4478 36.002 19.0018C36.002 19.2324 35.998 19.462 35.9904 19.6908C35.9942 19.6942 35.9982 19.6978 36.002 19.7012L35.9878 19.7602C35.9888 19.737 35.9896 19.7138 35.9904 19.6908C33.7148 17.6346 30.2502 16.474 25.6738 16.4712L25.779 17.0018C26.9574 22.791 23.4308 33.3784 16.002 39.0018C11.8217 39.0018 7.94089 37.7192 4.73169 35.5262L6.00195 35.0018C7.89109 34.1454 10.5429 32.217 12.565 29.3152L12.002 29.0018C6.75111 26.481 0.318693 16.9206 0.00195312 7.00173L0.191393 6.75167C2.31525 4.01447 5.13425 1.84359 8.38347 0.503906L8.24287 1.00173C7.66549 3.09831 7.53671 7.16323 9.64775 11.3507L10.002 11.0017Z" fill="#FEDF6F"/>
</svg>
