<svg width="42" height="42" viewBox="0 0 42 42" fill="none" xmlns="http://www.w3.org/2000/svg">
<path d="M8.96516 19.4924C8.79112 24.9374 15.2073 31.6486 21.2232 33.7584M8.96516 19.4924C8.35604 20.5378 2.13444 25.5254 2.02566 27.638C1.49852 31.8336 8.62664 39.7156 14.1227 39.9848C16.1751 40.276 19.022 36.8222 21.9078 34.2562C23.4972 32.8428 25.7878 32.5158 34.9566 30.2406C38.2838 29.6622 42.281 23.923 36.3554 19.0582M8.96516 19.4924C10.8216 15.09 14.031 6.5794 20.325 3.21856C22.881 1.7663 29.5198 0.42916 36.025 6.61354C38.263 8.49574 42.1424 12.6187 38.5316 17.369C36.1242 20.1746 32.4842 19.3624 32.1306 24.2146" stroke="#F682A5" stroke-width="3" stroke-linecap="round" stroke-linejoin="round"/>
</svg>
