<svg width="36" height="28" viewBox="0 0 36 28" fill="none" xmlns="http://www.w3.org/2000/svg">
<path opacity="0.4" d="M9.77196 4C11.1435 6.7936 12.6088 9.4098 12.2704 12.6284C11.7294 17.7738 5.49024 19.7104 1.50044 22.0808C-1.1135 23.6338 -0.136202 28 3.07164 28C6.96094 28 10.4321 27.6896 13.9412 26.0402L17.8114 23.6586L21.7634 26.0402C25.3468 27.6896 28.8916 28 32.8632 28C36.139 28 37.137 23.6338 34.4678 22.0808C30.3934 19.7104 24.0222 17.7738 23.4696 12.6284C23.124 9.4098 24.6204 6.7936 26.021 4L26.3592 3.39056C24.1984 1.29206 21.25 0 18 0C14.7002 0 11.7115 1.33188 9.54212 3.4874L9.77196 4Z" fill="#C7D78D"/>
</svg>
