<svg width="46" height="44" viewBox="0 0 46 44" fill="none" xmlns="http://www.w3.org/2000/svg">
<path d="M23 2C22.214 2.66666 21.1136 4.4 23 6M23 38C23.7861 38.6666 24.8865 40.4 23 42M38.625 7.00542C37.5177 6.93964 35.3444 7.44586 35.5088 9.99694M9.44952 33C9.51804 34.063 8.99075 36.1494 6.33335 35.9916M8.42233 7C8.35375 8.06404 8.88158 10.1526 11.5417 9.99458M35.5 33.0052C36.6073 32.943 38.7806 33.4216 38.6163 35.8336M43.8334 22C43.139 21.2454 41.3334 20.189 39.6667 22M6.33335 21C5.63892 21.7546 3.83335 22.811 2.16669 21" stroke="#FEDF6F" stroke-width="3" stroke-linecap="round"/>
</svg>
