<svg width="40" height="40" viewBox="0 0 40 40" fill="none" xmlns="http://www.w3.org/2000/svg">
<path opacity="0.4" fill-rule="evenodd" clip-rule="evenodd" d="M40.003 19.9998C40.003 25.2756 37.9602 30.0742 34.6226 33.648L27.2346 32.3108L24.7314 39.4376C23.2154 39.805 21.632 39.9998 20.003 39.9998C17.168 39.9998 14.4707 39.41 12.0273 38.3462L12.1057 30.3328L4.0095 30.4198H2.9284C1.32698 27.8012 0.311 24.7858 0.0625 21.5554L6.396 16.8774L3.11386 9.4407L3.07552 9.34296C5.56584 5.39562 9.39874 2.38006 13.933 0.9375L14.0029 0.9998L20.036 5.24462L26.003 0.9998L26.08 0.93976C30.1532 2.23734 33.66 4.8045 36.1354 8.17612L36.0626 8.39152L33.6098 14.7794L39.9968 19.4966L39.9982 19.562C40.0014 19.7076 40.003 19.8536 40.003 19.9998ZM20.5876 14.6979C20.239 14.434 19.767 14.434 19.4184 14.6979L14.9129 18.108C14.5644 18.3718 14.4185 18.8394 14.5517 19.2664L16.2726 24.7842C16.4058 25.211 16.7876 25.5 17.2184 25.5H22.7876C23.2184 25.5 23.6002 25.211 23.7334 24.7842L25.4542 19.2664C25.5874 18.8394 25.4416 18.3718 25.093 18.108L20.5876 14.6979Z" fill="#C3B2E7"/>
</svg>
