<svg width="30" height="28" viewBox="0 0 30 28" fill="none" xmlns="http://www.w3.org/2000/svg">
<path d="M19.4368 7.72166L28 25.9982C23.6666 25.9982 22.3478 23.7124 17.8261 21.4266C14.2087 19.5982 9.15942 19.9028 7.65218 20.2838L13.7148 15.9976C14.3317 15.5614 14.6402 15.3434 14.7387 15.0114C14.8373 14.6794 14.6979 14.3284 14.4189 13.6262L13.5704 11.49C13.2531 10.6912 13.0944 10.2918 12.8077 10.002C12.7078 9.9011 12.5974 9.8111 12.4784 9.73354C12.137 9.51092 11.7138 9.43584 10.8675 9.2857L4.3663 8.13222C2.9974 7.88936 2 6.69942 2 5.30914C2 3.56254 3.54836 2.22174 5.27702 2.4714L14.0686 3.74114C15.6521 3.96984 16.4438 4.08418 17.1042 4.46164C17.3795 4.619 17.6351 4.80854 17.8656 5.02624C18.4186 5.5485 18.758 6.27288 19.4368 7.72166Z" stroke="#B8CEDC" stroke-width="3" stroke-linecap="round" stroke-linejoin="round"/>
</svg>
